# xmcd
#
# Track frame offsets: 
#        150
#        28539
#        43501
#        63203
#        82478
#        98606
#        115848
#        136118
#        149087
#        167237
#        183921
#        197827
#        214068
#        228250
#        243347
#        261288
#        277630
#        297091
#        309843
#        325109
#
# Disc length: 4575 seconds
#
# Revision: 0
# Processed by: cddbd v1.5.2PL0 Copyright (c) Steve Scherf et al.
# Submitted via: ExactAudioCopy v0.99pb5
#
DISCID=1911dd14
DTITLE=Various Artist - 100 Counrty hits [CD3]
DYEAR=2009
DGENRE=Country
TTITLE0=Ryan Bingham - Southside of heaven
TTITLE1=Carrie Underwood - Before he cheas
TTITLE2=Mark Wills - When you think of me
TTITLE3=Travis Tritt - Best of intensions
TTITLE4=Terri Clark - You're easy on the eyes
TTITLE5=Clint Black - Desperado
TTITLE6=Billy Currington - must be doin'something right
TTITLE7=Pam Tillis - Mi vida locca (My crazy life)
TTITLE8=Hayes Carll - I got a gig
TTITLE9=Mary Chapin Carpenter - Shut up and kiss me
TTITLE10=Mark Chesnutt - Brother jukebox
TTITLE11=Martina McBride - A broken wing
TTITLE12=Kenny Chesney - How forever feels
TTITLE13=Kathy Mattea - Eightteen wheels
TTITLE14=Alan Jackson - Chattahoochee
TTITLE15=Sugarland - Want to
TTITLE16=Vince Gill - Whenever you come around
TTITLE17=Emerson Drive - Fall into me
TTITLE18=Sammy Kershaw - Third rate romance
TTITLE19=Toby Keith - Who's your daddy
EXTD=
EXTT0=
EXTT1=
EXTT2=
EXTT3=
EXTT4=
EXTT5=
EXTT6=
EXTT7=
EXTT8=
EXTT9=
EXTT10=
EXTT11=
EXTT12=
EXTT13=
EXTT14=
EXTT15=
EXTT16=
EXTT17=
EXTT18=
EXTT19=
PLAYORDER=
